<svg width="1024" height="1024" viewBox="0 0 1024 1024" fill="none" xmlns="http://www.w3.org/2000/svg">
<path d="M234.461 234.685C104.042 413.804 143.385 743.205 202.541 811.492L286.154 693.072C292.096 565.525 338.563 363.175 478.145 342.141C618.712 320.958 600.608 389.799 570.133 505.684L569.914 506.517C656.553 481.469 765.77 470.931 909.757 483.659C751.607 204.041 393.664 201.169 234.461 234.685Z" fill="#FFCC00"/>
<path d="M569.914 506.517C436.744 545.018 356.916 617.802 286.154 693.072C286.154 693.072 480.61 718.352 627.833 673.781C817.995 616.21 909.757 483.659 909.757 483.659C765.77 470.931 656.553 481.469 569.914 506.517Z" fill="#FFCC00"/>
<path d="M478.145 342.141C338.563 363.175 292.096 565.525 286.154 693.072C356.916 617.802 436.744 545.018 569.914 506.517L570.133 505.684C600.608 389.799 618.712 320.958 478.145 342.141Z" fill="#FF6060"/>
<path d="M909.757 483.659C751.607 204.041 393.664 201.169 234.461 234.685C104.042 413.804 143.385 743.205 202.541 811.492L286.154 693.072M909.757 483.659C765.77 470.931 656.553 481.469 569.914 506.517M909.757 483.659C909.757 483.659 817.995 616.21 627.833 673.781C480.61 718.352 286.154 693.072 286.154 693.072M286.154 693.072C292.096 565.525 338.563 363.175 478.145 342.141C618.712 320.958 600.608 389.799 570.133 505.684M286.154 693.072C356.916 617.802 436.744 545.018 569.914 506.517M569.914 506.517L570.133 505.684M569.914 506.517C569.987 506.239 570.06 505.961 570.133 505.684" stroke="black" stroke-width="30"/>
</svg>
