<svg width="868" height="904" viewBox="0 0 868 904" fill="none" xmlns="http://www.w3.org/2000/svg">
<path d="M156.461 191.685C26.0425 370.804 65.3857 700.205 124.541 768.492L208.154 650.072C214.096 522.525 260.563 320.175 400.145 299.141C540.712 277.958 522.608 346.799 492.133 462.684L491.914 463.517C578.553 438.469 687.77 427.931 831.757 440.659C673.607 161.041 315.664 158.169 156.461 191.685Z" fill="#FFCC00"/>
<path d="M491.914 463.517C358.744 502.018 278.916 574.802 208.154 650.072C208.154 650.072 402.61 675.352 549.833 630.781C739.995 573.21 831.757 440.659 831.757 440.659C687.77 427.931 578.553 438.469 491.914 463.517Z" fill="#FFCC00"/>
<path d="M400.145 299.141C260.563 320.175 214.096 522.525 208.154 650.072C278.916 574.802 358.744 502.018 491.914 463.517L492.133 462.684C522.608 346.799 540.712 277.958 400.145 299.141Z" fill="#FF6060"/>
<path d="M831.757 440.659C673.607 161.041 315.664 158.169 156.461 191.685C26.0425 370.804 65.3857 700.205 124.541 768.492L208.154 650.072M831.757 440.659C687.77 427.931 578.553 438.469 491.914 463.517M831.757 440.659C831.757 440.659 739.995 573.21 549.833 630.781C402.61 675.352 208.154 650.072 208.154 650.072M208.154 650.072C214.096 522.525 260.563 320.175 400.145 299.141C540.712 277.958 522.608 346.799 492.133 462.684M208.154 650.072C278.916 574.802 358.744 502.018 491.914 463.517M491.914 463.517L492.133 462.684M491.914 463.517C491.987 463.239 492.06 462.961 492.133 462.684" stroke="black" stroke-width="30"/>
<path d="M392 60.0001C392 60.0001 365.137 60 332 60C298.863 60 272 60.0001 272 60.0001" stroke="black" stroke-width="40" stroke-linecap="round"/>
<path d="M800 60C800 60 773.137 60.0002 740 60.0002C706.863 60.0002 680 60 680 60" stroke="black" stroke-width="40" stroke-linecap="round"/>
</svg>
